<?xml version="1.0" standalone="no"?>
<!DOCTYPE svg PUBLIC "-//W3C//DTD SVG 20010904//EN"
 "http://www.w3.org/TR/2001/REC-SVG-20010904/DTD/svg10.dtd">
<svg version="1.0" xmlns="http://www.w3.org/2000/svg"
 width="1280.000000pt" height="1121.000000pt" viewBox="0 0 1280.000000 1121.000000"
 preserveAspectRatio="xMidYMid meet">
<metadata>
Created by potrace 1.15, written by Peter Selinger 2001-2017
</metadata>
<g transform="translate(0.000000,1121.000000) scale(0.100000,-0.100000)"
fill="#000000" stroke="none">
<path d="M6265 11200 c-166 -36 -342 -163 -452 -325 -22 -33 -449 -769 -950
-1635 -500 -866 -1780 -3080 -2843 -4920 -1064 -1840 -1947 -3376 -1963 -3414
-54 -128 -69 -281 -42 -411 23 -110 68 -189 154 -276 91 -90 194 -147 339
-187 l97 -27 5750 -3 c3982 -2 5775 1 5831 8 176 23 318 82 422 176 190 171
239 416 139 683 -24 63 -413 741 -1407 2452 -755 1300 -2041 3514 -2857 4919
-817 1405 -1505 2586 -1531 2625 -62 91 -183 213 -252 252 -126 72 -318 109
-435 83z"/>
</g>
</svg>
