<?xml version="1.0" standalone="no"?><svg xmlns="http://www.w3.org/2000/svg" viewBox="0 0 1440 320"><path fill="#000024" fill-opacity="1" d="M0,160L6.2,138.7C12.3,117,25,75,37,64C49.2,53,62,75,74,80C86.2,85,98,75,111,90.7C123.1,107,135,149,148,192C160,235,172,277,185,272C196.9,267,209,213,222,186.7C233.8,160,246,160,258,170.7C270.8,181,283,203,295,181.3C307.7,160,320,96,332,69.3C344.6,43,357,53,369,80C381.5,107,394,149,406,160C418.5,171,431,149,443,133.3C455.4,117,468,107,480,133.3C492.3,160,505,224,517,256C529.2,288,542,288,554,288C566.2,288,578,288,591,266.7C603.1,245,615,203,628,202.7C640,203,652,245,665,266.7C676.9,288,689,288,702,256C713.8,224,726,160,738,144C750.8,128,763,160,775,154.7C787.7,149,800,107,812,122.7C824.6,139,837,213,849,256C861.5,299,874,309,886,298.7C898.5,288,911,256,923,229.3C935.4,203,948,181,960,186.7C972.3,192,985,224,997,213.3C1009.2,203,1022,149,1034,122.7C1046.2,96,1058,96,1071,106.7C1083.1,117,1095,139,1108,144C1120,149,1132,139,1145,149.3C1156.9,160,1169,192,1182,208C1193.8,224,1206,224,1218,224C1230.8,224,1243,224,1255,240C1267.7,256,1280,288,1292,277.3C1304.6,267,1317,213,1329,202.7C1341.5,192,1354,224,1366,218.7C1378.5,213,1391,171,1403,138.7C1415.4,107,1428,85,1434,74.7L1440,64L1440,0L1433.8,0C1427.7,0,1415,0,1403,0C1390.8,0,1378,0,1366,0C1353.8,0,1342,0,1329,0C1316.9,0,1305,0,1292,0C1280,0,1268,0,1255,0C1243.1,0,1231,0,1218,0C1206.2,0,1194,0,1182,0C1169.2,0,1157,0,1145,0C1132.3,0,1120,0,1108,0C1095.4,0,1083,0,1071,0C1058.5,0,1046,0,1034,0C1021.5,0,1009,0,997,0C984.6,0,972,0,960,0C947.7,0,935,0,923,0C910.8,0,898,0,886,0C873.8,0,862,0,849,0C836.9,0,825,0,812,0C800,0,788,0,775,0C763.1,0,751,0,738,0C726.2,0,714,0,702,0C689.2,0,677,0,665,0C652.3,0,640,0,628,0C615.4,0,603,0,591,0C578.5,0,566,0,554,0C541.5,0,529,0,517,0C504.6,0,492,0,480,0C467.7,0,455,0,443,0C430.8,0,418,0,406,0C393.8,0,382,0,369,0C356.9,0,345,0,332,0C320,0,308,0,295,0C283.1,0,271,0,258,0C246.2,0,234,0,222,0C209.2,0,197,0,185,0C172.3,0,160,0,148,0C135.4,0,123,0,111,0C98.5,0,86,0,74,0C61.5,0,49,0,37,0C24.6,0,12,0,6,0L0,0Z"></path></svg>